<svg width="38" height="63" viewBox="0 0 38 63" fill="none" xmlns="http://www.w3.org/2000/svg">
<path d="M30.6895 15.8542C33.4654 16.9189 34.5793 20.1037 33.5576 22.8956L20.9162 57.4373C20.2627 59.223 17.7371 59.223 17.0836 57.4373L4.44223 22.8956C3.42046 20.1037 4.53443 16.9189 7.31024 15.8542C10.9396 14.4621 14.8806 13.6992 18.9999 13.6992C23.1191 13.6992 27.0602 14.4621 30.6895 15.8542Z" fill="#FA735E"/>
<path fill-rule="evenodd" clip-rule="evenodd" d="M10.8251 0.597676C10.0282 -0.199225 8.73615 -0.199225 7.93925 0.597676C7.14234 1.39458 7.14234 2.68661 7.93925 3.48351L14.3638 9.90807C11.4039 10.2813 8.55045 11.0072 5.84875 12.0435C0.606883 14.0541 -1.02847 19.8217 0.609754 24.298L7.85651 44.0993C7.89193 44.2422 7.94255 44.3797 8.00675 44.5098L13.2511 58.8398C15.2117 64.1969 22.7883 64.1969 24.7489 58.8398L37.3902 24.298C39.0285 19.8217 37.3931 14.0541 32.1512 12.0435C29.4495 11.0072 26.5961 10.2813 23.6362 9.90807L30.0607 3.48351C30.8576 2.68661 30.8576 1.39458 30.0607 0.597676C29.2638 -0.199225 27.9718 -0.199225 27.1749 0.597676L19 8.77259L10.8251 0.597676ZM12.8793 45.9489L17.0837 57.4371C17.7372 59.2228 20.2628 59.2228 20.9163 57.4371L33.5577 22.8954C34.5794 20.1035 33.4655 16.9187 30.6896 15.854C27.0603 14.4619 23.1192 13.699 19 13.699C14.8808 13.699 10.9397 14.4619 7.31035 15.854C4.53454 16.9187 3.42057 20.1035 4.44234 22.8954L5.27649 25.1747C7.68572 25.46 10.2673 25.6732 12.9749 25.8016C14.1006 25.855 14.9699 26.8108 14.9165 27.9366C14.8631 29.0623 13.9073 29.9316 12.7815 29.8782C10.7314 29.781 8.74494 29.6364 6.84077 29.449L11.329 41.7129C13.1588 41.8929 15.074 42.0324 17.0562 42.1264C18.1819 42.1798 19.0512 43.1356 18.9978 44.2613C18.9444 45.3871 17.9886 46.2564 16.8629 46.203C15.5051 46.1386 14.1754 46.0534 12.8793 45.9489Z" fill="white"/>
</svg>
