<svg width="158" height="38" viewBox="0 0 158 38" fill="none" xmlns="http://www.w3.org/2000/svg">
<path d="M52.7619 13.9763C54.0016 13.9763 55.1057 14.2378 56.0742 14.7608C57.0427 15.2644 57.8078 16.0295 58.3695 17.0561C58.9313 18.0827 59.2121 19.3321 59.2121 20.8042V30.1889H56.5972V21.1819C56.5972 19.5936 56.2001 18.3829 55.4059 17.55C54.6311 16.6977 53.5755 16.2716 52.2389 16.2716C50.8637 16.2716 49.7693 16.7171 48.9557 17.6081C48.1422 18.4798 47.7354 19.7485 47.7354 21.4143V30.1889H45.1205V21.1819C45.1205 19.5936 44.7234 18.3829 43.9292 17.55C43.1544 16.6977 42.0988 16.2716 40.7623 16.2716C39.387 16.2716 38.2926 16.7171 37.479 17.6081C36.6655 18.4798 36.2587 19.7485 36.2587 21.4143V30.1889H33.6147V14.2668H36.2587V16.5622C36.7817 15.7292 37.479 15.09 38.3507 14.6445C39.2417 14.199 40.2199 13.9763 41.2852 13.9763C42.6218 13.9763 43.8033 14.2765 44.8299 14.877C45.8565 15.4774 46.6217 16.3588 47.1253 17.521C47.5708 16.3975 48.3068 15.5259 49.3334 14.906C50.3601 14.2862 51.5029 13.9763 52.7619 13.9763Z" fill="#3A314D"/>
<path d="M77.2632 14.2668L67.675 37.6851H64.9439L68.0818 30.0146L61.6607 14.2668H64.5952L69.5927 27.1672L74.532 14.2668H77.2632Z" fill="#3A314D"/>
<path d="M85.5576 30.4504C84.3373 30.4504 83.2429 30.247 82.2744 29.8402C81.3059 29.4141 80.5408 28.833 79.9791 28.097C79.4174 27.3415 79.1075 26.4796 79.0493 25.5111H81.7805C81.858 26.3052 82.226 26.9541 82.8846 27.4577C83.5625 27.9614 84.4439 28.2132 85.5286 28.2132C86.5358 28.2132 87.33 27.9904 87.9111 27.5449C88.4922 27.0994 88.7827 26.5377 88.7827 25.8597C88.7827 25.1624 88.4728 24.6491 87.853 24.3198C87.2332 23.9712 86.2743 23.6322 84.9765 23.3029C83.795 22.993 82.8265 22.6831 82.0711 22.3731C81.335 22.0438 80.6958 21.5693 80.1534 20.9494C79.6305 20.3102 79.369 19.4773 79.369 18.4507C79.369 17.6372 79.6111 16.8914 80.0953 16.2135C80.5796 15.5356 81.2672 15.0029 82.1582 14.6155C83.0492 14.2087 84.0662 14.0053 85.209 14.0053C86.9717 14.0053 88.3953 14.4508 89.4801 15.3419C90.5648 16.2329 91.1459 17.4532 91.2234 19.0028H88.5794C88.5212 18.1699 88.1823 17.5016 87.5624 16.998C86.962 16.4944 86.1484 16.2426 85.1218 16.2426C84.1727 16.2426 83.4173 16.4459 82.8555 16.8527C82.2938 17.2595 82.013 17.7921 82.013 18.4507C82.013 18.9737 82.1776 19.4095 82.5069 19.7582C82.8555 20.0875 83.2817 20.3587 83.7853 20.5717C84.3083 20.7654 85.025 20.9882 85.9354 21.24C87.0782 21.5499 88.0079 21.8598 88.7246 22.1698C89.4413 22.4603 90.0515 22.9058 90.5551 23.5063C91.0781 24.1067 91.3493 24.8912 91.3686 25.8597C91.3686 26.7314 91.1265 27.5159 90.6423 28.2132C90.158 28.9105 89.4704 29.4625 88.5794 29.8693C87.7077 30.2567 86.7005 30.4504 85.5576 30.4504Z" fill="#3A314D"/>
<path d="M98.3261 16.4459V25.8307C98.3261 26.6055 98.4908 27.1575 98.8201 27.4868C99.1494 27.7967 99.7208 27.9517 100.534 27.9517H102.481V30.1889H100.098C98.6264 30.1889 97.5223 29.8499 96.7862 29.172C96.0502 28.494 95.6821 27.3803 95.6821 25.8307V16.4459H93.6192V14.2668H95.6821V10.2572H98.3261V14.2668H102.481V16.4459H98.3261Z" fill="#3A314D"/>
<path d="M108.329 16.8527C108.793 15.9423 109.452 15.2353 110.304 14.7317C111.176 14.2281 112.232 13.9763 113.471 13.9763V16.7074H112.774C109.81 16.7074 108.329 18.3151 108.329 21.5305V30.1889H105.685V14.2668H108.329V16.8527Z" fill="#3A314D"/>
<path d="M117.889 11.6809C117.385 11.6809 116.959 11.5066 116.611 11.1579C116.262 10.8093 116.088 10.3831 116.088 9.87953C116.088 9.37591 116.262 8.94977 116.611 8.60111C116.959 8.25245 117.385 8.07812 117.889 8.07812C118.373 8.07812 118.78 8.25245 119.109 8.60111C119.458 8.94977 119.632 9.37591 119.632 9.87953C119.632 10.3831 119.458 10.8093 119.109 11.1579C118.78 11.5066 118.373 11.6809 117.889 11.6809ZM119.167 14.2668V30.1889H116.523V14.2668H119.167Z" fill="#3A314D"/>
<path d="M122.686 22.1698C122.686 20.5427 123.015 19.119 123.674 17.8987C124.332 16.659 125.233 15.7002 126.376 15.0222C127.538 14.3443 128.836 14.0053 130.269 14.0053C131.509 14.0053 132.661 14.2959 133.727 14.877C134.792 15.4387 135.605 16.1844 136.167 17.1142V8.68828H138.84V30.1889H136.167V27.1963C135.644 28.1454 134.869 28.9299 133.843 29.5497C132.816 30.1502 131.615 30.4504 130.24 30.4504C128.826 30.4504 127.538 30.1017 126.376 29.4044C125.233 28.7071 124.332 27.7289 123.674 26.4699C123.015 25.2108 122.686 23.7775 122.686 22.1698ZM136.167 22.1988C136.167 20.9979 135.925 19.9519 135.441 19.0609C134.957 18.1699 134.298 17.4919 133.465 17.027C132.652 16.5428 131.751 16.3007 130.763 16.3007C129.775 16.3007 128.874 16.5331 128.061 16.998C127.247 17.4629 126.598 18.1408 126.114 19.0318C125.63 19.9228 125.388 20.9688 125.388 22.1698C125.388 23.3901 125.63 24.4554 126.114 25.3658C126.598 26.2568 127.247 26.9444 128.061 27.4287C128.874 27.8936 129.775 28.126 130.763 28.126C131.751 28.126 132.652 27.8936 133.465 27.4287C134.298 26.9444 134.957 26.2568 135.441 25.3658C135.925 24.4554 136.167 23.3997 136.167 22.1988Z" fill="#3A314D"/>
<path d="M157.836 21.6177C157.836 22.1213 157.807 22.654 157.749 23.2157H145.023C145.119 24.7847 145.652 26.0147 146.621 26.9057C147.608 27.7774 148.8 28.2132 150.194 28.2132C151.337 28.2132 152.286 27.9517 153.042 27.4287C153.817 26.8863 154.359 26.1696 154.669 25.2786H157.516C157.09 26.8089 156.238 28.0582 154.959 29.0267C153.681 29.9758 152.093 30.4504 150.194 30.4504C148.684 30.4504 147.328 30.1114 146.127 29.4335C144.945 28.7555 144.015 27.7967 143.337 26.557C142.659 25.298 142.32 23.8453 142.32 22.1988C142.32 20.5524 142.65 19.1093 143.308 17.8696C143.967 16.63 144.887 15.6808 146.069 15.0222C147.27 14.3443 148.645 14.0053 150.194 14.0053C151.705 14.0053 153.042 14.3346 154.204 14.9932C155.366 15.6518 156.257 16.5622 156.877 17.7244C157.516 18.8672 157.836 20.165 157.836 21.6177ZM155.105 21.0657C155.105 20.0584 154.882 19.1965 154.436 18.4798C153.991 17.7437 153.381 17.1917 152.606 16.8237C151.85 16.4363 151.008 16.2426 150.078 16.2426C148.742 16.2426 147.599 16.6687 146.65 17.521C145.72 18.3732 145.187 19.5548 145.052 21.0657H155.105Z" fill="#3A314D"/>
<path fill-rule="evenodd" clip-rule="evenodd" d="M6.54421 0.36132C6.06245 -0.12044 5.28136 -0.12044 4.7996 0.36132C4.31784 0.843079 4.31784 1.62417 4.7996 2.10593L8.68351 5.98984C6.89412 6.21547 5.1691 6.65431 3.53581 7.28079C0.366886 8.49631 -0.621753 11.983 0.368622 14.6891L4.74958 26.6598C4.771 26.7462 4.8016 26.8294 4.84041 26.908L8.01085 35.571C9.19609 38.8096 13.7765 38.8097 14.9617 35.571L22.604 14.6892C23.5943 11.983 22.6057 8.49631 19.4368 7.28079C17.8035 6.6543 16.0784 6.21546 14.289 5.98984L18.173 2.10593C18.6547 1.62417 18.6547 0.843079 18.173 0.36132C17.6912 -0.12044 16.9101 -0.12044 16.4284 0.36132L11.4863 5.30339L6.54421 0.36132ZM7.78607 27.778L10.3278 34.7231C10.7229 35.8026 12.2497 35.8026 12.6448 34.7231L20.287 13.8412C20.9047 12.1534 20.2313 10.2281 18.5532 9.58439C16.3591 8.74279 13.9765 8.28163 11.4863 8.28163C8.99603 8.28163 6.6135 8.74279 4.41941 9.58439C2.74132 10.2281 2.06788 12.1534 2.68558 13.8412L3.18986 15.2191C4.64633 15.3916 6.20698 15.5205 7.84386 15.5981C8.52441 15.6304 9.04993 16.2083 9.01766 16.8888C8.98538 17.5693 8.40752 18.0949 7.72698 18.0626C6.48759 18.0038 5.28668 17.9164 4.13553 17.8031L6.84888 25.2171C7.95506 25.326 9.11284 25.4103 10.3112 25.4671C10.9917 25.4994 11.5173 26.0773 11.485 26.7578C11.4527 27.4383 10.8748 27.9639 10.1943 27.9316C9.37346 27.8927 8.56964 27.8412 7.78607 27.778Z" fill="#3A314D"/>
</svg>
