<svg width="95" height="95" viewBox="0 0 95 95" fill="none" xmlns="http://www.w3.org/2000/svg">
<path fill-rule="evenodd" clip-rule="evenodd" d="M39.5712 16.9811C38.7983 16.2081 37.5452 16.2081 36.7723 16.9811C35.9994 17.754 35.9994 19.0071 36.7723 19.78L43.0034 26.0112C40.1326 26.3732 37.3651 27.0772 34.7447 28.0823C29.6606 30.0325 28.0745 35.6264 29.6634 39.968L36.692 59.1732C36.7264 59.3118 36.7755 59.4452 36.8378 59.5714L41.9243 73.4699C43.8258 78.6658 51.1744 78.6658 53.0759 73.4699L65.3367 39.968C66.9257 35.6264 65.3395 30.0325 60.2554 28.0823C57.6351 27.0772 54.8675 26.3732 51.9967 26.0112L58.2279 19.78C59.0008 19.0071 59.0008 17.754 58.2279 16.9811C57.455 16.2081 56.2018 16.2081 55.4289 16.9811L47.5001 24.9099L39.5712 16.9811ZM41.5636 60.9671L45.6415 72.1095C46.2753 73.8415 48.7248 73.8415 49.3587 72.1095L61.6195 38.6076C62.6105 35.8997 61.5301 32.8108 58.8378 31.7781C55.3178 30.4279 51.4953 29.688 47.5001 29.688C43.5048 29.688 39.6824 30.4279 36.1623 31.7781C33.4701 32.8108 32.3896 35.8997 33.3806 38.6076L34.1897 40.8182C36.5264 41.095 39.0302 41.3017 41.6563 41.4263C42.7482 41.4781 43.5913 42.4051 43.5395 43.497C43.4877 44.5888 42.5607 45.4319 41.4688 45.3802C39.4804 45.2859 37.5537 45.1457 35.7069 44.9638L40.06 56.8586C41.8348 57.0332 43.6922 57.1684 45.6148 57.2596C46.7066 57.3114 47.5498 58.2385 47.498 59.3303C47.4462 60.4222 46.5191 61.2653 45.4273 61.2135C44.1104 61.1511 42.8207 61.0685 41.5636 60.9671Z" fill="white"/>
</svg>
