<svg width="24" height="24" viewBox="0 0 24 24" fill="none" xmlns="http://www.w3.org/2000/svg">
<path fill-rule="evenodd" clip-rule="evenodd" d="M17.6423 10.5031C17.6288 7.35996 15.1063 4.81327 12.0003 4.81327C8.88705 4.81327 6.36016 7.37162 6.35816 10.5247V15.6833H3.53711V10.5284V10.2995V7.74514L6.77003 3.23589L12.0003 1.51562L17.2305 3.23589L20.4634 7.74514V10.5284H20.4633V15.6833H17.6423V10.5031Z" fill="#9588A6"/>
<path d="M7.76953 10.5641C7.76953 8.22706 9.66407 6.33252 12.0011 6.33252V6.33252C14.3381 6.33252 16.2327 8.22706 16.2327 10.5641V14.5499H7.76953V10.5641Z" fill="#D3CCDE"/>
<path fill-rule="evenodd" clip-rule="evenodd" d="M11.7181 15.6836H3.53711V20.4842C3.53711 21.5887 4.43254 22.4842 5.53711 22.4842H11.7181V15.6836ZM20.4633 15.6836H12.2823V22.4842H18.4633C19.5679 22.4842 20.4633 21.5887 20.4633 20.4842V15.6836Z" fill="#9588A6"/>
</svg>
