<svg width="24" height="24" viewBox="0 0 24 24" fill="none" xmlns="http://www.w3.org/2000/svg">
<path d="M5 1.5V1.5C6.65685 1.5 8 2.84315 8 4.5V6.5C8 8.15685 6.65685 9.5 5 9.5V9.5V1.5Z" fill="#9588A6"/>
<path d="M16 4.5C16 2.84315 17.3431 1.5 19 1.5V1.5V9.5V9.5C17.3431 9.5 16 8.15685 16 6.5V4.5Z" fill="#9588A6"/>
<path fill-rule="evenodd" clip-rule="evenodd" d="M5 4.5H19V17.5C19 20.2614 16.7614 22.5 14 22.5H10C7.23858 22.5 5 20.2614 5 17.5V4.5ZM10 10C10 10.8284 9.32843 11.5 8.5 11.5C7.67157 11.5 7 10.8284 7 10C7 9.17157 7.67157 8.5 8.5 8.5C9.32843 8.5 10 9.17157 10 10ZM15.5 11.5C16.3284 11.5 17 10.8284 17 10C17 9.17157 16.3284 8.5 15.5 8.5C14.6716 8.5 14 9.17157 14 10C14 10.8284 14.6716 11.5 15.5 11.5Z" fill="#9588A6"/>
<path fill-rule="evenodd" clip-rule="evenodd" d="M5 16.5V17.5C5 20.2593 7.2352 22.4966 9.99376 22.5C9.99584 22.5 9.99792 22.5 10 22.5H14C14.0021 22.5 14.0042 22.5 14.0062 22.5C16.7648 22.4966 19 20.2593 19 17.5L19 16.5H5Z" fill="#D3CCDE"/>
</svg>
