<svg width="24" height="24" viewBox="0 0 24 24" fill="none" xmlns="http://www.w3.org/2000/svg">
<path fill-rule="evenodd" clip-rule="evenodd" d="M12 2C11.4477 2 11 2.44772 11 3V5C11 5.55228 11.4477 6 12 6C12.5523 6 13 5.55228 13 5V3C13 2.44772 12.5523 2 12 2ZM4.92879 4.92912C4.53826 5.31965 4.53826 5.95281 4.92879 6.34334L6.343 7.75755C6.73352 8.14807 7.36669 8.14807 7.75721 7.75755C8.14774 7.36702 8.14774 6.73386 7.75721 6.34334L6.343 4.92912C5.95248 4.5386 5.31931 4.5386 4.92879 4.92912ZM21 11C21.5523 11 22 11.4477 22 12C22 12.5523 21.5523 13 21 13H19C18.4477 13 18 12.5523 18 12C18 11.4477 18.4477 11 19 11L21 11ZM19.0714 4.92879C18.6808 4.53826 18.0477 4.53826 17.6572 4.92879L16.2429 6.343C15.8524 6.73352 15.8524 7.36669 16.2429 7.75721C16.6335 8.14774 17.2666 8.14774 17.6572 7.75721L19.0714 6.343C19.4619 5.95248 19.4619 5.31931 19.0714 4.92879ZM11 19C11 18.4477 11.4477 18 12 18C12.5523 18 13 18.4477 13 19V21C13 21.5523 12.5523 22 12 22C11.4477 22 11 21.5523 11 21V19ZM16.2423 16.2426C15.8517 16.6331 15.8517 17.2663 16.2423 17.6568L17.6565 19.071C18.047 19.4615 18.6802 19.4615 19.0707 19.071C19.4612 18.6805 19.4612 18.0473 19.0707 17.6568L17.6565 16.2426C17.266 15.8521 16.6328 15.8521 16.2423 16.2426ZM5 11C5.55228 11 6 11.4477 6 12C6 12.5523 5.55228 13 5 13H3C2.44772 13 2 12.5523 2 12C2 11.4477 2.44772 11 3 11L5 11ZM7.75691 16.2428C7.36639 15.8522 6.73322 15.8522 6.3427 16.2428L4.92849 17.657C4.53796 18.0475 4.53796 18.6807 4.92849 19.0712C5.31901 19.4617 5.95217 19.4617 6.3427 19.0712L7.75691 17.657C8.14743 17.2664 8.14743 16.6333 7.75691 16.2428Z" fill="#D3CCDE"/>
<ellipse cx="12" cy="12" rx="4" ry="4" fill="#9588A6"/>
</svg>
