<svg width="24" height="24" viewBox="0 0 24 24" fill="none" xmlns="http://www.w3.org/2000/svg">
<path fill-rule="evenodd" clip-rule="evenodd" d="M12 22.5C17.799 22.5 22.5 17.799 22.5 12C22.5 6.20101 17.799 1.5 12 1.5C6.20101 1.5 1.5 6.20101 1.5 12C1.5 17.799 6.20101 22.5 12 22.5ZM12.0001 13C13.6569 13 15.0001 11.6569 15.0001 10C15.0001 8.34317 13.6569 7.00003 12.0001 7.00003C10.3432 7.00003 9.00006 8.34317 9.00006 10C9.00006 11.6569 10.3432 13 12.0001 13Z" fill="#9588A6"/>
<path d="M18 20.618C16.2992 21.8043 14.2309 22.5 12 22.5C9.76913 22.5 7.70075 21.8043 6 20.618V18C6 16.8954 6.89543 16 8 16H16C17.1046 16 18 16.8954 18 18V20.618Z" fill="#D3CCDE"/>
</svg>
